<svg xmlns="http://www.w3.org/2000/svg" width="26" height="26.07" viewBox="0 0 26 26.07">
  <defs>
    <style>
      .cls-1 {
        fill: #00ba00;
        fill-opacity: 0;
        stroke: #41bb9c;
        stroke-linejoin: round;
        stroke-width: 2px;
        fill-rule: evenodd;
      }
    </style>
  </defs>
  <path id="blog-section-coda-next.svg" class="cls-1" d="M203.644,2393.58c-0.122-.14-1.125-1.02-1.525.09a6.179,6.179,0,0,1-.787,1.74,4.152,4.152,0,0,1-1.569,1.52s-7.161-3.99-14.558,2.85c-0.523.48-1.054,0.95-1.535,1.48a13.306,13.306,0,0,0-3.049,5.26,12.961,12.961,0,0,0-.412,4.89c0.347,3.58,1.668,5.78,1.97,5.78s0.7-.9.844-1.24a3.043,3.043,0,0,1,.809-1.13c1.883-1.66,5.157-1.76,5.157-1.76a18.512,18.512,0,0,0,10.283-3.97c5.36-4.79,2.769-10.01,2.458-10.66s1.664-2.79,2.3-3.85A0.717,0.717,0,0,0,203.644,2393.58Z" transform="translate(-179.156 -2392.12)"/>
</svg>
