<svg xmlns="http://www.w3.org/2000/svg" height="153.509" width="204.9"><g transform="translate(-8227.051 -3307.592)"><path d="M8304.966 3335.891c-9.648-14.568-21.549-16.226-28.946-15.253-13.672 1.8-17.717 11.027-20.125 22.781-7.7-4.484-17.4-.551-22.605 5.9-8.917 11.066-4.28 23.971 6.686 30.83-11.832 10.523-15.9 26.64-3.427 39.644 14.338 14.944 31.513 7.075 45.537-2.51 2.1 16.183 15.666 31.93 30.448 38.54 19.7 8.811 48.964 1.153 53.218-21.829 13.8 10.914 31.966-5.235 32.376-20.14 16.441 6.549 33.724-6.635 32.213-25.328-1.477-18.256-21.253-41.265-40.649-29.448.1-6.717-.833-14.141-6.12-19.089-8.37-7.833-16.062-4.346-25.518-4.21 11.838-33.967-52.399-37.198-53.088.112z" fill="#d8e9f7" stroke="#3e4147" stroke-linecap="round" stroke-linejoin="round" stroke-width="3"/><path d="M8365.751 3434c13.8 10.914 31.966-5.235 32.376-20.14 14.577 5.807 29.8-3.9 32.02-19.207-5.2 3.58-11.332 7.2-17.406 8.193-9.488 1.548-16.254-4.515-24.9-8.135-5.62 18.06-53.229 23.483-54.949.692-15.947 6.523-32.849-.427-45.428-10.751-7.18-5.893-16.615-20.86-6.639-29.081-8.491-4.568-14.927-12.484-14.849-22.533a30.63 30.63 0 012.493-10.231c-7.762 3.745-10.681 11.393-12.57 20.614-7.7-4.484-17.4-.551-22.605 5.9-8.916 11.066-4.28 23.971 6.686 30.83-11.832 10.523-15.9 26.64-3.427 39.644 14.338 14.944 31.514 7.075 45.536-2.51 2.1 16.183 15.667 31.93 30.449 38.54 19.699 8.813 48.962 1.155 53.213-21.825z" fill="#c4d7e9"/><g stroke="#3e4147" stroke-linecap="round" stroke-linejoin="round" stroke-width="3"><path d="M8304.966 3335.891c-9.648-14.568-21.549-16.226-28.946-15.253-13.672 1.8-17.717 11.027-20.125 22.781-7.7-4.484-17.4-.551-22.605 5.9-8.917 11.066-4.28 23.971 6.686 30.83-11.832 10.523-15.9 26.64-3.427 39.644 14.338 14.944 31.513 7.075 45.537-2.51 2.1 16.183 15.666 31.93 30.448 38.54 19.7 8.811 48.964 1.153 53.218-21.829 13.8 10.914 31.966-5.235 32.376-20.14 16.441 6.549 33.724-6.635 32.213-25.328-1.477-18.256-21.253-41.265-40.649-29.448.1-6.717-.833-14.141-6.12-19.089-8.37-7.833-16.062-4.346-25.518-4.21 11.838-33.967-52.399-37.198-53.088.112zM8294.4 3363.385c5.7-12.384 23.774-4.448 23.333 5.333M8341.844 3373.246c4.4-12.9 23.193-6.863 23.757 2.912" fill="none"/><path d="M8365.064 3395.051c-22.666-1.666-62-7.666-77.333-15.333 0 0 4 21.333 29.333 29.333s48-14 48-14z" fill="#c4d7e9"/></g><ellipse cx="5.255" cy="9.67" fill="#fff" rx="5.255" ry="9.67" transform="rotate(-77.538 6234.744 -3521.475)"/><ellipse cx="3.526" cy="6.488" fill="#fff" rx="3.526" ry="6.488" transform="rotate(-87.142 5941.066 -2719.328)"/></g></svg>
