<svg xmlns="http://www.w3.org/2000/svg" height="162.225" width="231.972"><g stroke="#3e4147" stroke-linecap="round" stroke-linejoin="round" stroke-width="3.512" transform="translate(-8200.834 -4154.073)"><path d="M8202.59 4202.866l.321 111.676s151.8-8.3 226.529-8.656c-1.149-35.925 6.16-79.083-3.231-114.054-41.222-.816-81.491 2.038-123.934 4.324-19.655 1.059-99.685 6.71-99.685 6.71z" fill="#b5c933"/><path d="M8224.6 4213.041s-1.518 15.092-12.713 18.372l1.611 56.763s6.625.415 11.647 12.669l184.673-7.631s-.264-15.587 10.406-17.338c0 0 1.686-50.324-.887-58.671 0 0-12.911-2.558-12.854-14.029z" fill="#cedd3e"/><ellipse cx="62.065" cy="52.952" fill="#b5c933" rx="62.065" ry="52.952" transform="rotate(-4.211 61296.453 -110113.093)"/><path d="M8272.316 4256.823c28.25 10.25 91.75-10.25 91.75-10.25-3 46.75-73.75 62-91.75 10.25z" fill="#cedd3e"/><g fill="#b5c933"><path d="M8291.681 4239.024c-1.5-20.5 12.723-23.076 14.5-1M8315.864 4236.294c-1.5-20.5 12.721-23.076 14.5-1M8266.253 4175.336l8.666 8.666M8281.584 4158.672l11.998 20.664M8312.247 4156.006l2 18.664M8339.576 4160.672l-3.999 15.998"/></g></g></svg>
